<svg xmlns="http://www.w3.org/2000/svg" viewBox="0 0 48 48" fill="white">
    <path fill-rule="evenodd" clip-rule="evenodd" d="M24 4C12.95 4 4 12.95 4 24c0 8.84 5.73 16.33 13.67 18.97.1.02.21.03.31.03.8 0 1.09-.54 1.09-1.05v-3.72c-5.56 1.21-6.74-2.68-6.74-2.68-.91-2.31-2.21-2.92-2.21-2.92-1.82-1.24.14-1.21.14-1.21 2.01.14 3.06 2.06 3.06 2.06 1.78 3.06 4.69 2.18 5.83 1.67.18-1.29.7-2.18 1.27-2.68-4.44-.51-9.11-2.22-9.11-9.88 0-2.18.78-3.97 2.05-5.36-.2-.51-.89-2.54.19-5.3 0 0 1.67-.54 5.48 2.04 1.59-.44 3.29-.66 4.99-.67 1.7.01 3.4.23 4.99.67 3.81-2.58 5.48-2.04 5.48-2.04 1.08 2.76.4 4.79.2 5.3 1.28 1.39 2.05 3.18 2.05 5.36 0 7.68-4.68 9.37-9.14 9.87.72.62 1.36 1.84 1.36 3.71v5.51c0 .52.28 1.06 1.11 1.05C38.27 40.32 44 32.84 44 24c0-11.05-8.95-20-20-20z"/>
</svg>